<?xml version="1.0" encoding="UTF-8"?>
<svg id="Layer_2" data-name="Layer 2" xmlns="http://www.w3.org/2000/svg" viewBox="0 0 460.56 39.02">
  <defs>
    <style>
      .cls-1 {
        fill: #fcff56;
        stroke-width: 0px;
      }
    </style>
  </defs>
  <g id="Layer_1-2" data-name="Layer 1">
    <g>
      <path class="cls-1" d="M23.07,38.95h-8.89L0,19.07h12.15c1.49,0,2.71-1.22,2.71-2.72s-1.22-2.71-2.71-2.71H0v-7.26h12.15c4.82,0,8.96,3.46,9.84,8.21.95,5.43-2.65,10.59-8.07,11.54l9.16,12.82ZM0,25.31l9.77,13.64H0v-13.64Z"/>
      <path class="cls-1" d="M53.68,38.95h-7.53l-5.5-19-5.5,19h-7.53L37.05,6.38h7.26l9.36,32.57ZM37.59,4.55h-3.05V0h3.05v4.55ZM46.82,4.55h-3.05V0h3.05v4.55Z"/>
      <path class="cls-1" d="M58.16,13.64v-7.26h19.54v7.26h-19.54ZM64.26,38.95V15.4h7.26v23.55h-7.26Z"/>
      <path class="cls-1" d="M80.55,13.64v-7.26h19.54v7.26h-19.54ZM86.66,38.95V15.4h7.26v23.55h-7.26Z"/>
      <path class="cls-1" d="M128.66,6.38l-9.43,32.57h-7.26l-9.43-32.57h7.53l5.5,19,5.5-19h7.6Z"/>
      <path class="cls-1" d="M132.46,38.95V6.38h7.26v32.57h-7.26Z"/>
      <path class="cls-1" d="M152.75,6.38v32.57h-7.26V6.38h7.26ZM159.94,22.66l7.26,16.29h-7.26l-7.26-16.29,7.26-16.28h7.26l-7.26,16.28Z"/>
      <path class="cls-1" d="M190.68,29.04c0,5.5-4.48,9.98-9.97,9.98h-9.57v-7.26h9.57c1.49,0,2.71-1.22,2.71-2.71s-1.22-2.71-2.71-2.71c-5.5,0-9.97-4.48-9.97-9.98s4.48-9.97,9.97-9.97h9.57v7.26h-9.57c-1.49,0-2.71,1.22-2.71,2.71s1.22,2.72,2.71,2.72c5.5,0,9.97,4.48,9.97,9.97Z"/>
      <path class="cls-1" d="M232.96,6.38v22.6c0,5.5-4.48,9.97-9.97,9.97s-9.97-4.48-9.97-9.97V6.38h7.26v22.6c0,1.49,1.22,2.71,2.71,2.71s2.71-1.22,2.71-2.71V6.38h7.26Z"/>
      <path class="cls-1" d="M260.24,6.38v32.57h-7.26l-7.26-16.29v16.29h-7.26V6.38h7.26l7.26,16.28V6.38h7.26Z"/>
      <path class="cls-1" d="M265.81,38.95V6.38h7.26v32.57h-7.26Z"/>
      <path class="cls-1" d="M302.99,6.38l-9.43,32.57h-7.26l-9.43-32.57h7.53l5.5,19,5.5-19h7.6Z"/>
      <path class="cls-1" d="M306.45,13.64v-7.26h19.54v7.26h-19.54ZM306.45,26.33v-7.26h19.54v7.26h-19.54ZM306.45,39.02v-7.26h19.54v7.26h-19.54Z"/>
      <path class="cls-1" d="M354.16,38.95h-8.89l-14.18-19.88h12.15c1.49,0,2.72-1.22,2.72-2.72s-1.22-2.71-2.72-2.71h-12.15v-7.26h12.15c4.82,0,8.96,3.46,9.84,8.21.95,5.43-2.65,10.59-8.07,11.54l9.16,12.82ZM331.09,25.31l9.77,13.64h-9.77v-13.64Z"/>
      <path class="cls-1" d="M377.84,29.04c0,5.5-4.48,9.98-9.98,9.98h-9.57v-7.26h9.57c1.49,0,2.71-1.22,2.71-2.71s-1.22-2.71-2.71-2.71c-5.5,0-9.97-4.48-9.97-9.98s4.48-9.97,9.97-9.97h9.57v7.26h-9.57c-1.49,0-2.71,1.22-2.71,2.71s1.22,2.72,2.71,2.72c5.5,0,9.98,4.48,9.98,9.97Z"/>
      <path class="cls-1" d="M382.73,38.95V6.38h7.26v32.57h-7.26Z"/>
      <path class="cls-1" d="M394.2,13.64v-7.26h19.54v7.26h-19.54ZM400.3,38.95V15.4h7.26v23.55h-7.26Z"/>
      <path class="cls-1" d="M417.61,13.64v-7.26h19.54v7.26h-19.54ZM417.61,26.33v-7.26h19.54v7.26h-19.54ZM417.61,39.02v-7.26h19.54v7.26h-19.54Z"/>
      <path class="cls-1" d="M441.02,13.64v-7.26h19.54v7.26h-19.54ZM447.13,38.95V15.4h7.26v23.55h-7.26Z"/>
    </g>
  </g>
</svg>